<?xml version="1.0" encoding="UTF-8"?>
<svg id="Layer_2" data-name="Layer 2" xmlns="http://www.w3.org/2000/svg" viewBox="0 0 1920 1080">
  <defs>
    <style>
      .cls-1 {
        fill: #a0a0a0;
      }
    </style>
  </defs>
  <path class="cls-1" d="M506.42,293.03v9h-9v18l-8.96-1-.04,18h-9v26l-8.94,.03,.94,17.97h-9v26h-9v18l-9-.03v17.03l-9,.03v18.94l9,.03,.04,17h8.96v18l9-1v18.59l8-.59,.85,27.03,8.15-1.03v18h9s0,18,0,18h9v26h8v18h9.28l-.28,25.96,9,.04c.02,6,.04,12,.06,18,2.98-.09,5.96-.19,8.94-.28v17.28l9,9h9v-9h-9l-.17-17.28-8.83-25.72-8.94-18-8.72-7.76-.05-18.24h-8.29v-18l-8.94-6.92v-11.08l-9.06-13v-13h-9v-18l-9-4,1-22h-9v-18h-9v-35h9v-18h9.02l-1.02-26h9v-18h9v-26h8.77l.23-18h9v-18h9v-17h-9Z"/>
  <path class="cls-1" d="M523.42,292.81l-8,17.22-15.02,30.99-7.59,13.76,.15,15.52-10.66,4.44v11.62l-5.47,7.68-1.71,12.48,4.3,9.52h-7.98l-.06,18h-8.96v35h9v18h8v26h9v18h9l.06,26h8.94v18h9l-.71,18h8.71l.06,26h8.94v18h8.89l-.06,25.72,9.17,.12v17.16h9v9h52v-9h9v-17l9,.04v-18.04h9v-26l8.94-.03-.94-17.97h9v-26h9v-18h8.96s.04-17,.04-17l9-.03v-26.97h8v-18l9,.04v-17.04l9-.03v-16.97h9.04c-.02-6.33-.05-12.67-.07-19h-8.96v-17.03l-9,.03v-18h-8v-26h-9v-17.97l-9-.03v-26.03l-9,.03v-18h-9v-17h-9v-9.05l-123-.17Z"/>
  <path d="M629.42,662.99v18.04h-9v17h-88v-17h-8.7c-.13-.19-.22-.25-.22-.32,0-5.91,0-11.82,.02-17.73l-.05,.05h8.94v-26h-9v-18h9v18h8.89c.03,.38,.06,.61,.06,.84,0,8.03,0,16.05,0,24.08,0,.27-.08,.53-.12,.8-2.93,0-5.87,0-8.83,0v17.28h8.9c.09-1.09,.28-.83-1.64-4.6-1.85-3.63-.99-7.8,1.45-11.07,.41-.55,.18-1.09,.09-1.64,.61,.05,1.22,.13,1.82,.14,2.41,.02,4.82,0,7.37,0v17.16h9v9h52v-9h9v-17h9.04l-.04-.04Zm-88,17.04v9h9v-9h-9Zm-53.04-360h9.04v-18h9v-9h9v18h8v-18.22c.47-.03,.82-.06,1.17-.06,40.39,0,80.77,0,121.16,0,.24,0,.48,.02,.72,.02l-.04,.05v-8.78h-149v18h-9v18.04l-.04-.04Zm26.46,325.22c.02-2.63,.06-5.26,.06-7.89,0-6.18-.01-12.36-.02-18.33h-9.45v-18h-8v-26h9v18h9c0-5.97,0-11.9,0-18h-9v-18h-9v18h-9v-18h-9v-18h-9.03l.03-.03v18.03h9v18h9v26h9v18h9v26h8.45l-.03,.22Zm-70.46-220.22h9.04v-18h9v-26h9v-18.03l.03,.03h-9.03v18h-9v26h-9v18.04l-.04-.04Zm238.04-62.03v18.03h9v26h8v18h9.04l-.04,.03v-18.03h-9v-26h-9v-18h-8.03l.03-.03Zm-8.96,194.03h-9.04v18h-9v26h-9v18.03l-.03-.03h9.03v-18h9v-26h9v-18.04l.04,.04Zm-27.04-264.05v9.05h9v17h9v18h9.03l-.03,.03v-18.03h-9v-17h-9v-9h-9.05l.05-.05Zm53.05,202.05h-9.05v18h-8v26.03l-.03-.03h9.03v-26h8v-18.05l.05,.05Zm-229.02-132h8.97v-26h9v-18.04l.04,.04c-2.97,0-5.94,0-9.04,0v18h-9v1.44c0,5.05,0,10.09,0,15.14,0,3.15,.04,6.3,.06,9.45l-.03-.03Zm176.94,256h-8.97v26h-9v18.04l-.04-.04h9.04v-18h9v-1.44c0-5.05,0-10.09,0-15.14,0-3.15-.04-6.3-.06-9.45l.03,.03Zm-184.97-105.97v-18.03h-9v-17h-9.04l.04-.04v18.04h9v17h9.03l-.03,.03Zm211-176.06v26.03h9.03l-.03,.03v-26.03h-9.03l.03-.03Zm-202.15,203.05c.01-8.81,.02-17.62,.03-26.43-2.97,.01-5.95,.02-8.92,.03l.03-.03v26.41h8.89l-.03,.03Zm-35.85-79.99v-18.07l.03,.03h-9.03v18h9.03l-.03,.03Zm282.04,.97h-9.04v17.03l-.03-.03h9.03v-17.03l.04,.03Zm-9.04-36.03v17.03h9.04l-.04,.03v-17.03h-9.04l.04-.03Zm-273.03,17.03h9.03v-17.03l.04,.03h-9.04v17.03l-.03-.03Zm273.07,36h-9.03v17.04l-.04-.04h9.04v-17.03l.03,.03Zm-26,62h-9.03v17.03l-.04-.03c2.99,0,5.98,0,9.04,0v-17.03l.03,.03Zm-159.03,122.04v-17.04h-9.03l.03-.04v17.04h9.05l-.05,.04Zm-79-184.01v-17.03h-9.03l.03-.03v17.03h9.04l-.04,.03Zm273-36.06v18.06l-.04-.03h9.04v-18h-9.04l.04-.03Zm-238-25.97v-26h9v-18h-9v18h-9v26h9Zm9,97h-9v-26h-9c0,8.67,0,17.33,0,26,2.98,0,5.9,0,9,0v18h9v-18Zm18-167v-18h9v-18h-9v18h-9v18h9Zm-44,88h-9v35h9v-35Zm34.71-62c0-4.06,0-7.91,0-11.75,.01-4.75,.04-9.5,.06-14.25h-8.77v26h8.71Zm.29,183.59c0-7.7,0-15.39,0-23.09v-1.5h-9v26c3.02,0,6.04,0,9.06,0-.02-.47-.06-.94-.06-1.41Zm26.06,63.41c-.02-.47-.06-.94-.06-1.41,0-7.7,0-15.41,0-23.11v-1.48h-8.71c.02,6.08,.05,12.16,.05,18.24,0,2.59-.04,5.18-.06,7.76h8.78Zm-52.11-185c0-.78,0-1.3,0-1.82,.02-5.39,.04-10.79,.06-16.18h-9.02v18h8.96Zm.04,35h-9v18h9v-18Z"/>
  <path d="M602.91,381.1h26.38v17.58h-26.37v52.78h-17.59v-52.7h-26.36v-17.64h26.26v-26.34h17.68v26.32Z"/>
</svg>