<?xml version="1.0" encoding="UTF-8"?>
<svg xmlns="http://www.w3.org/2000/svg" viewBox="0 0 1920 1080">
  <defs>
    <style>
      .cls-1 {
        fill: #fff;
      }

      .cls-2 {
        fill: #a0a0a0;
      }

      .cls-3 {
        fill: #b1b1b1;
      }
    </style>
  </defs>
  <g id="Layer_1" data-name="Layer 1">
    <path class="cls-2" d="M306.71,379.52c-1.35,4.57-3.6,11.42-7.25,19.41-2.41,5.28-4.33,8.67-7.44,14.41-3.12,5.75-7.55,14.11-12.81,24.6-.45,1.86-.91,3.71-1.36,5.57,.04,4.29,.08,8.59,.12,12.88-3.54,2.36-7.09,4.72-10.63,7.08v11.62l-5.47,7.68-1.71,12.48,4.3,9.52c-3.09-.02-6.17-.05-9.26-.07-.59,6.01-1.19,12.02-1.78,18.02-2.91-.04-5.81-.08-8.72-.13-.11,11.79-.23,23.57-.34,35.36,3.19,.14,6.38,.28,9.57,.42,.43,5.58,.85,11.15,1.28,16.73,3.09,.22,6.17,.44,9.26,.66v26c2.7,.11,5.4,.23,8.1,.34-.03,5.75-.07,11.5-.1,17.25h9.11c-1.01,8.79-2.03,17.57-3.04,26.36,4.01-.03,8.03-.07,12.04-.1-.03,6-.07,12-.1,18,1.83,.96,3.66,1.93,5.49,2.89,1.27,5.09,2.54,10.17,3.81,15.26,1.98,.66,3.95,1.33,5.93,1.99-.23,8.07-.46,16.15-.68,24.22l9.91,2.09c-.74,5.06-1.48,10.11-2.22,15.17,3.88,.15,7.76,.3,11.63,.46-.69,8.6-1.38,17.2-2.07,25.8,4.19-.03,8.38-.07,12.57-.1-.66,6.04-1.32,12.07-1.98,18.11,3.45-.04,6.91-.07,10.36-.11-.55,3.06-1.1,6.12-1.65,9.19,18.73,.51,37.47,1.02,56.2,1.54l-.17-8.54c2.55-.23,5.09-.46,7.64-.68,.08-6.37,.16-12.74,.24-19.11l9,.04c.24-5.2,.48-10.41,.71-15.61,2.76-.81,5.52-1.62,8.29-2.43v-21.65l8.01-4.24c0-6.04,0-12.07,0-18.11h9v-26h9v-18h8.96s.04-17,.04-17l9-.03v-24.75c2.79-.59,5.58-1.18,8.38-1.77v-18c2.96-.03,5.93-.07,8.89-.1,.9-5.78,1.8-11.57,2.7-17.35,2.01,0,4.02-.02,6.03-.02v-16.97h9.04c-.02-6.33-.05-12.67-.07-19h-8.96v-17.03c-2.24-.61-4.47-1.21-6.71-1.82,.23-5.41,.46-10.81,.68-16.22-3.66,.02-7.31,.05-10.97,.07-.24-10.16-.48-20.32-.73-30.48-2.19,.46-4.39,.91-6.58,1.37-.56-4.95-1.13-9.9-1.69-14.85l-9-.03c-.24-10.36-.49-20.71-.73-31.07-2.23,.74-4.46,1.48-6.68,2.22-.53-5.05-1.06-10.1-1.59-15.15h-9v-19.35c-2.17-.11-4.33-.23-6.5-.34-.83-2.12-1.67-4.24-2.5-6.35-41.58-.73-83.17-1.46-124.76-2.19Z"/>
    <g>
      <path class="cls-1" d="M139.74,805.43V362.86h442.56v442.56H139.74Zm318-159.83h9v-17.25h8.99c0-9.04,0-17.65,0-26.25h9c0-6.3,0-12.15,0-18h8.26v-18.01h9v-17.25h8.8v-17.89c-3.1,0-5.95,0-8.8,0v-17.25c-3.29,0-6.15,0-9,0v-18.01h-8.26v-26.25c-3.28,0-6.14,0-8.99,0v-17.26h-9.01v-27c-3.28,0-6.14,0-8.99,0v-17.26h-8.26v-18c-3.29,0-6.14,0-8.99,0v-8.26h-9.01v-8.8h-149.91c0,5.85,0,11.45,0,17.05h-9c0,6.3,0,12.15,0,18h-8.26v17.26h-8.99c0,9.29,0,18.15,0,27h-9.01v17.26h-8.99c0,9.04,0,17.65,0,26.25h-8.26v18.01h-9v17.25h-8.8v17.89c3.1,0,5.95,0,8.8,0v17.25c3.29,0,6.15,0,9,0v18.01h8.26v18h9v26.25h8.99v17.25h9v18.01h8.26v26.25h8.99v18.01h9.01v26.25h8.99v17.26h8.26v18h9v17.05h88.4c0-5.85,0-11.45,0-17.05h9c0-6.3,0-12.15,0-18h8.26v-17.26h8.99c0-9.04,0-17.65,0-26.25h9.01v-18.01h8.99c0-9.04,0-17.65,0-26.25h8.26v-18.01Z"/>
      <path class="cls-1" d="M264.2,425.07h8.25v-17.25h9v-18h8.92v-7.96h9.09c0,5.73,0,11.4,0,17.07,0,0,.1-.11,.1-.11h-9.11v18.11l.1-.1h-9.11v17.36l.1-.1h-9.11v26.36l.1-.1h-8.36v18.11l.1-.1h-9.11v26.36l.1-.1h-9.11v18.11l.1-.1h-8.8v35.36h8.8l-.1-.1v17.36h9.11l-.1-.1v27.11l.1-.11c-3.03,.04-6.07,.07-9.1,.11v-18h-9v-18h-8.25v-17.25h-9c0-6.04,0-12.07,0-18.11h9v-17.25h8.25c0-6.11,0-12.06,0-18h9c0-8.86,0-17.56,0-26.25h9c0-5.86,0-11.56,0-17.25h9v-27Zm61.61,344.29l-.1,.11v-18.11l.1,.1h-9.11s.11-.1,.11-.1c-.04,6.04-.07,12.07-.11,18.11,3.03-.04,6.07-.07,9.1-.11Zm9,.11h-9.11s.1-.11,.1-.11c0,2.94,0,5.88,0,8.8h8.9v-8.8l.1,.11Zm-62.36-123.77v-26.36l.1,.1h-8.36v-17.36l.1,.1h-9.11s.1-.11,.1-.11c-.03,8.79-.07,17.58-.1,26.36h9v17.25c2.78-.04,5.57-.07,8.35-.11l-.1,.11Zm27.11,62.15l-.1,.11v-27.11l.1,.1h-9.11v-17.36l.1,.1h-9.11s.11-.1,.11-.1c-.04,8.79-.07,17.57-.11,26.36h9v18c3.03-.04,6.07-.07,9.1-.11Zm-18-44.25s-.11,.1-.11,.1v-18.11l.1,.1h-9.11s.1-.11,.1-.11c-.03,6.04-.07,12.08-.1,18.11,3.04-.03,6.07-.07,9.11-.1Zm35.26,87.76s-.11,.1-.11,.1c0-8.79,0-17.57,0-26.36l.1,.1h-9.11v-17.36l.1,.1h-8.36s.1-.11,.1-.11c-.03,8.79-.07,17.58-.1,26.36h8.25v17.25c3.04-.03,6.07-.07,9.11-.1Z"/>
      <path d="M281.57,389.92v-17.05h149.91v8.8l.11-.1h-123.91v17.36c-3.01,0-5.61,0-8.22,0,0-5.67,0-11.34,0-17.07h-9.09v7.96h-8.92l.11,.1Zm123.76,379.56h-8.97v8.75h-53.15v-8.86h-8.49v8.8h-8.9c0-2.92,0-5.86,0-8.8-3.03,.04-6.07,.07-9.1,.11l.11-.1v17.05h88.4v-17.05l.11,.1ZM255.2,452.07h9v-27l.1,.11h-8.99v27l-.11-.1Zm202.63-27v27h9s-.11,.1-.11,.1v-27h-8.99l.1-.11Zm-202.63,203.38c.03-8.79,.07-17.58,.1-26.36-3.03,.04-6.07,.07-9.1,.11l.11-.1v26.25h8.99l-.1,.11Zm220.64-26.25h-9v26.25l-.1-.11h8.99v-26.25l.11,.1Zm-194.38,87.76c.04-8.79,.07-17.57,.11-26.36-3.04,.03-6.07,.07-9.11,.1,0,0,.11-.1,.11-.1v26.25h8.99l-.1,.11Zm168.13-26.25h-9v26.25l-.1-.11h8.99v-26.25l.11,.1Zm-150.13,70.51c.03-8.79,.07-17.58,.1-26.36-3.03,.04-6.07,.07-9.1,.11l.11-.1v26.25h8.99l-.1,.11Zm132.12-26.25h-9v26.25l-.1-.11h8.99v-26.25l.11,.1Zm-194.38-212.39h9c0-8.86,0-17.56,0-26.25l.1,.11h-8.99v26.25l-.11-.1Zm238.64-26.25v26.25h9s-.11,.1-.11,.1v-26.25h-8.99l.1-.11Zm-203.38-61.51h9v-18s.11,.1,.11,.1c-2.95,0-5.89,0-9,0v18l-.11-.1Zm168.13-18v18h9s-.11,.1-.11,.1v-18h-8.99l.1-.11Zm61.51,141.02v18.11l-.1-.11h8.8v-17.89h-8.8l.1-.11Zm-87.76,220.64h-9v18l-.11-.1c2.95,0,5.89,0,9,0v-18l.11,.1Zm-194.38-202.53c0-6.04,0-12.07,0-18.11l.1,.11h-8.8v17.89h8.8l-.1,.11Zm26.25,53.26v-18h-9l.11-.1v18h9l-.11,.1Zm70.51,167.27c.04-6.04,.07-12.07,.11-18.11-3.04,.03-6.07,.07-9.11,.1l.11-.1v18h9l-.11,.1Zm168.13-185.28h-9v18s-.11-.1-.11-.1c2.95,0,5.89,0,9,0v-18l.11,.1Zm-44.26,105.77h-9v18s-.11-.1-.11-.1c2.95,0,5.89,0,9.01,0v-18.01l.1,.11Zm-150.13,18v-18h-9s.1-.11,.1-.11c0,5.95,0,11.9,0,18.01h9.01l-.11,.1Zm202.63-194.38v17.25h9s-.1,.11-.1,.11c0-5.7,0-11.39,0-17.25h-9l.1-.11Zm-264.14,52.61v-17.25h-9s.1-.11,.1-.11c0,5.7,0,11.39,0,17.25h9l-.1,.11Zm-9-35.36h9v-17.25l.1,.11h-9v17.25l-.1-.11Zm246.89-78.76v17.25h9s-.1,.11-.1,.11c0-5.7,0-11.4,0-17.26h-9.01l.11-.1Zm-202.63,193.63v-17.25h-9s.1-.11,.1-.11c0,5.7,0,11.39,0,17.25h9l-.1,.11Zm237.89-96.76h-9v17.25l-.1-.11h9v-17.25l.1,.11Zm-35.26,79.51h-9v17.25l-.1-.11h9v-17.25l.1,.11Zm-220.64-159.13h9c0-5.86,0-11.56,0-17.25,0,0,.11,.1,.11,.1-2.95,0-5.89,0-9.01,0v17.26l-.1-.11Zm26.25,194.38c.03-6.04,.07-12.08,.1-18.11-2.78,.04-5.57,.07-8.35,.11,0,0,.1-.11,.1-.11,0,5.95,0,11.9,0,18.01h8.26l-.11,.1Zm212.39-168.13v18h8.25s-.1,.11-.1,.11c0-5.95,0-11.9,0-18.01h-8.26l.11-.1Zm-255.89,18h8.25c0-6.11,0-12.06,0-18,0,0,.11,.1,.11,.1-2.7,0-5.4,0-8.26,0v18.01l-.1-.11Zm228.89,132.12h-8.25v18s-.11-.1-.11-.1h8.26v-18.01l.1,.11Zm35.26-79.51h-8.25v18s-.11-.1-.11-.1h8.26v-18.01l.1,.11Zm-255.89,18v-18h-8.25s.1-.11,.1-.11c0,5.95,0,11.9,0,18.01h8.26l-.11,.1Zm27-159.13h8.25v-17.25s.11,.1,.11,.1c-2.7,0-5.4,0-8.26,0v17.26l-.1-.11Zm43.51,326.4v-17.25h-8.25s.1-.11,.1-.11c0,5.7,0,11.4,0,17.26h8.26l-.11,.1Zm141.88-343.65v17.25h8.25s-.1,.11-.1,.11c0-5.7,0-11.4,0-17.26h-8.26l.11-.1Zm-27,326.4h-8.25v17.25s-.11-.1-.11-.1h8.26v-17.26l.1,.11Zm9-352.66v8.25h9s-.1,.11-.1,.11c0-2.7,0-5.4,0-8.26h-9.01l.11-.1Z"/>
      <path d="M246.31,557.94h-8.8v-35.36h8.8v35.36Zm18,17.15h-9.11v27.11h9.11v-27.11Zm17.25,44.26h-9.11v26.36h9.11v-26.36Zm0-158.92v-26.36h-9.11v26.36h9.11Zm44.26,291.04v-26.36h-9.11c0,8.79,0,17.57,0,26.36h9.11Zm-61.51-246.79v-26.36h-9.11v26.36h9.11Zm43.51,176.17h-8.36v27.11h8.36v-27.11Zm-8.25-263.93v-18.11h-9.11v18.11h9.11Zm35.26,334.44h-9.11c0,6.04,0,12.07,0,18.11h9.11v-18.11Zm-44.26-87.66v-18.11h-9.11v18.11h9.11Zm-35.26-141.02v-18.11h-9.11v18.11h9.11Zm35.26-88.51v-17.36h-9.11v17.36h9.11Zm9,229.43h-9.11v17.36h9.11v-17.36Zm-44.26-105.77h-9.11v17.36h9.11v-17.36Zm61.51,150.02h-9.11v17.36h9.11v-17.36Zm-44.26-229.43v-18.11h-8.36v18.11h8.36Zm0,123.66h-8.36v17.36h8.36v-17.36Z"/>
    </g>
  </g>
  <g id="Layer_3" data-name="Layer 3">
    <g>
      <polygon class="cls-3" points="435.61 562.13 435.72 597.28 444.61 597.38 444.61 615.28 418.47 615.39 418.36 632.54 374.22 632.54 374.11 623.85 365.21 623.85 365.21 632.64 320.96 632.54 320.85 615.39 294.7 615.28 294.7 597.38 303.6 597.28 303.71 562.13 311.85 562.02 311.95 473.62 320.85 473.51 320.96 465.36 329.85 465.26 329.85 456.26 347.1 456.26 347.21 447.36 391.35 447.36 391.46 456.26 409.36 456.36 409.47 465.26 418.36 465.36 418.47 473.51 426.61 473.62 426.72 562.02 435.61 562.13"/>
      <g>
        <path class="cls-1" d="M383.22,526.82v-26.36h26.36v26.36h-26.36Z"/>
        <path class="cls-1" d="M356.32,500.46v26.36h-26.36v-26.36h26.36Z"/>
        <path d="M426.73,473.56h8.99v88.51s.11-.1,.11-.1h-9v-88.51l-.1,.11Zm-123.02,88.4h8.25c0-29.62,0-59.07,0-88.51l.1,.11h-8.24v88.51l-.11-.1Zm61.61,70.61c-14.79,0-29.57,0-44.36,0l.11-.1v8.8h44.14v-8.8l.11,.1Zm-18.11-185.38h44.36l-.11,.1v-8.8h-44.14v8.8l-.11-.1Zm71.36,185.38c-14.79,0-29.57,0-44.36,0l.11-.1v8.8h44.14v-8.8l.11,.1Zm17.25-70.61v35.26h9l-.11,.1v-35.26h-9l.11-.1Zm-114.87,70.61v-17.25h-26.25l.11-.1v8.41h17.34v8.84h8.92l-.11,.1Zm123.87-17.25h-26.25v17.25s-.11-.1-.11-.1c2.69,0,5.37,0,8.43,0v-9.1h17.82v-8.15l.11,.1Zm-150.13,0c0-6.04,0-12.07,0-18.11,0,0,.11,.1,.11,.1-2.94,0-5.88,0-8.8,0v17.9h8.8l-.11,.1Zm96.87-168.13v9h18l-.11,.1v-9h-18l.11-.1Zm53.26,150.02c0,6.04,0,12.07,0,18.11,0,0-.11-.1-.11-.1h8.8v-17.9h-8.8l.11-.1Zm-114.87-141.02h17.25v-9s.11,.1,.11,.1c-5.7,0-11.39,0-17.25,0v9l-.11-.1Zm44.26,176.38v-8.79h-8.9v8.79s-.11-.1-.11-.1h9.12l-.11,.1Zm35.36-176.38v9h9l-.11,.1v-9h-9l.11-.1Zm-88.62,9h9v-9s.11,.1,.11,.1c-2.95,0-5.89,0-9,0v9l-.11-.1Zm-9,8.25h9v-8.25s.11,.1,.11,.1c-2.95,0-5.9,0-9.01,0v8.26l-.1-.11Zm106.62-8.25v8.25h8.25s-.1,.11-.1,.11v-8.26h-8.26l.11-.1Zm-9,35.26v26.36l-.1-.11h8.8v-26.14h-8.8l.1-.11Zm-53.26,26.36h-26.36s.11-.1,.11-.1v8.8h26.14v-8.8l.11,.1Zm53.26,0h-26.36l.11-.1v8.8h26.15v-8.8l.1,.11Zm-79.62-26.36h26.36l-.11,.1v-8.8h-26.14v8.8l-.11-.1Zm53.26,0h26.36s-.1,.11-.1,.11v-8.81h-26.15v8.8l-.11-.1Zm-53.26,26.36v-26.36s.11,.1,.11,.1c-2.94,0-5.88,0-8.8,0v26.15h8.8l-.11,.1Zm26.36-26.36v26.36l-.11-.1c2.94,0,5.88,0,8.8,0v-26.15h-8.8l.11-.1Zm26.9,26.36v-26.36l.11,.1c-2.94,0-5.88,0-8.8,0v26.15h8.8l-.11,.1Zm-88.51,70.41h9v-35.26s.11,.1,.11,.1c-2.95,0-5.89,0-9,0v35.26l-.11-.1Z"/>
      </g>
    </g>
  </g>
</svg>